<?xml version="1.0" standalone="no"?>
<!DOCTYPE svg PUBLIC "-//W3C//DTD SVG 20010904//EN"
 "http://www.w3.org/TR/2001/REC-SVG-20010904/DTD/svg10.dtd">
<svg version="1.0" xmlns="http://www.w3.org/2000/svg"
 width="1632.000000pt" height="1056.000000pt" viewBox="0 0 1632.000000 1056.000000"
 preserveAspectRatio="xMidYMid meet">
<metadata>
Created by potrace 1.13, written by Peter Selinger 2001-2015
</metadata>
<g transform="translate(0.000000,1056.000000) scale(0.100000,-0.100000)"
fill="#000000" stroke="none">
<path d="M1845 7666 c-103 -17 -193 -41 -280 -73 -75 -27 -229 -103 -261 -128
-10 -9 28 9 86 39 115 60 268 115 400 143 128 27 430 25 562 -5 159 -35 309
-93 448 -174 35 -20 35 -20 10 0 -71 59 -297 150 -455 184 -118 25 -396 33
-510 14z"/>
<path d="M12610 6220 l0 -1450 1503 2 1502 3 -1498 2 -1497 3 2 1438 3 1437
950 0 c523 0 988 -3 1035 -6 68 -6 78 -5 50 4 -23 7 -373 12 -1042 14 l-1008
4 0 -1451z"/>
<path d="M6617 7600 c-4 -25 -6 -666 -5 -1425 l3 -1380 1440 0 1440 0 -1432 2
-1433 3 -2 1423 c-2 782 -7 1402 -11 1377z"/>
<path d="M9961 7176 c-102 -116 -193 -268 -257 -430 -124 -311 -125 -718 -3
-1029 30 -76 87 -195 96 -200 5 -3 -11 34 -34 83 -168 345 -189 749 -61 1115
54 152 171 352 270 460 28 31 49 57 47 59 -2 2 -28 -25 -58 -58z"/>
<path d="M4950 6745 c-242 -55 -410 -265 -410 -513 0 -149 47 -260 157 -368
115 -115 236 -161 398 -151 214 12 394 151 465 357 30 87 30 227 1 320 -80
255 -353 413 -611 355z m311 -87 c220 -107 321 -345 244 -574 -65 -194 -241
-320 -445 -318 -142 1 -241 43 -336 141 -236 247 -144 647 178 769 55 21 77
24 173 21 104 -2 114 -5 186 -39z"/>
<path d="M1564 6718 c3 -23 3 -23 229 -26 l227 -2 2 -468 c3 -459 3 -467 23
-467 20 0 20 8 23 468 l2 467 225 0 c123 0 226 4 229 9 4 5 3 16 0 25 -5 14
-56 16 -485 16 l-479 0 4 -22z"/>
<path d="M10965 6730 c-115 -23 -233 -94 -304 -183 -214 -269 -103 -659 226
-788 119 -47 290 -36 417 27 125 61 264 233 226 279 -20 24 -27 19 -61 -45
-65 -122 -195 -211 -339 -232 -67 -10 -90 -9 -161 6 -111 24 -151 46 -232 127
-75 75 -109 139 -128 243 -44 235 140 480 385 515 199 28 395 -70 482 -241 24
-48 37 -55 63 -39 11 7 7 20 -18 68 -103 193 -342 306 -556 263z"/>
<path d="M7540 6488 c0 -257 7 -324 46 -418 30 -76 101 -178 152 -219 154
-128 363 -157 539 -75 144 67 271 241 303 413 6 29 10 161 10 292 l0 239 -25
0 -25 0 0 -229 c0 -315 -18 -395 -116 -522 -89 -116 -188 -173 -323 -185 -179
-17 -363 94 -452 272 -46 92 -58 187 -59 442 l0 222 -25 0 -25 0 0 -232z"/>
<path d="M13350 6220 l0 -480 25 0 25 0 0 225 0 225 455 0 455 0 0 -225 0
-225 25 0 25 0 0 480 0 480 -25 0 -25 0 0 -225 0 -225 -455 0 -455 0 0 225 0
225 -25 0 -25 0 0 -480z"/>
<path d="M1010 5240 c0 -14 174 -161 252 -212 265 -176 600 -265 902 -238 209
18 373 63 546 150 86 44 240 143 240 155 0 3 -35 -19 -77 -49 -165 -114 -363
-194 -578 -231 -114 -20 -342 -20 -465 -1 -282 46 -556 182 -762 380 -32 30
-58 51 -58 46z"/>
</g>
</svg>
