<?xml version="1.0" standalone="no"?>
<!DOCTYPE svg PUBLIC "-//W3C//DTD SVG 20010904//EN"
 "http://www.w3.org/TR/2001/REC-SVG-20010904/DTD/svg10.dtd">
<svg version="1.0" xmlns="http://www.w3.org/2000/svg"
 width="180.000000pt" height="181.000000pt" viewBox="0 0 180.000000 181.000000"
 preserveAspectRatio="xMidYMid meet">
<metadata>
Created by potrace 1.13, written by Peter Selinger 2001-2015
</metadata>
<g transform="translate(0.000000,181.000000) scale(0.100000,-0.100000)"
fill="#000000" stroke="none">
<path d="M25 1775 c-40 -39 -34 -83 21 -147 25 -29 48 -53 52 -53 4 0 31 26
61 57 l54 58 -39 42 c-21 24 -45 48 -53 55 -26 20 -70 15 -96 -12z"/>
<path d="M220 1743 c0 -9 7 -24 16 -34 15 -17 12 -23 -60 -101 -42 -46 -76
-85 -76 -88 0 -4 15 -21 34 -39 l33 -32 74 80 c40 45 76 81 79 81 3 0 46 -44
95 -97 89 -98 108 -113 119 -94 7 10 -289 341 -305 341 -5 0 -9 -8 -9 -17z"/>
<path d="M1566 1616 c-17 -19 -114 -163 -215 -321 l-185 -288 29 -25 29 -25
26 30 c209 248 428 511 437 527 7 12 12 37 13 56 0 84 -75 110 -134 46z"/>
<path d="M265 1510 l-59 -60 40 -42 c22 -24 114 -124 204 -223 90 -99 172
-189 182 -200 18 -19 19 -19 73 35 30 30 55 58 55 63 0 7 -220 253 -419 470
-16 16 -20 14 -76 -43z"/>
<path d="M732 1006 c-29 -30 -52 -58 -52 -63 1 -10 169 -87 176 -80 4 4 -48
155 -64 184 -6 10 -21 1 -60 -41z"/>
<path d="M1094 976 c-11 -8 -26 -33 -33 -55 -13 -47 -43 -71 -86 -71 -26 -1
-28 -2 -11 -11 27 -17 174 -6 214 15 18 9 36 24 39 32 10 27 -8 65 -40 84 -38
24 -56 25 -83 6z"/>
<path d="M528 835 c-25 -8 -69 -31 -98 -50 -47 -31 -59 -35 -119 -35 -106 0
-101 16 -101 -328 0 -323 0 -322 66 -322 l34 0 0 -50 0 -50 85 0 c69 0 85 3
85 15 0 8 1 15 3 15 1 0 24 -7 51 -15 99 -30 206 -13 295 46 l59 39 326 0 326
0 0 -50 0 -50 85 0 85 0 0 50 c0 47 2 50 26 50 14 0 34 5 45 10 18 10 19 24
19 315 0 291 -1 305 -19 315 -13 6 -175 10 -459 10 -426 0 -440 1 -465 20 -85
67 -231 96 -329 65z m207 -119 c58 -27 118 -90 149 -155 30 -66 30 -206 -1
-273 -29 -63 -94 -132 -151 -158 -65 -31 -160 -31 -225 0 -67 32 -139 114
-162 185 -25 80 -17 192 17 260 75 144 236 205 373 141z m963 -103 l-3 -28
-185 0 -185 0 -3 28 -3 27 191 0 191 0 -3 -27z m-110 -140 c109 -6 112 -7 112
-30 l0 -23 -190 0 -190 0 0 23 c0 13 3 27 7 30 8 9 115 9 261 0z m112 -203 l0
-30 -190 0 -190 0 0 30 0 30 190 0 190 0 0 -30z"/>
<path d="M515 644 c-75 -39 -117 -108 -118 -194 0 -67 29 -136 75 -175 42 -35
53 -31 28 10 -13 21 -24 59 -27 94 -5 49 -1 68 20 114 35 77 88 112 169 112
64 0 69 9 18 37 -43 22 -124 24 -165 2z"/>
</g>
</svg>
