<svg width="19499" height="5199" xmlns="http://www.w3.org/2000/svg">
 <defs>
  <style type="text/css">
   <![CDATA[
    .fil0 {fill:#2B2A29}
   ]]>
  </style>
 </defs>
 <g>
  <title>background</title>
  <rect fill="none" id="canvas_background" height="5201" width="19501" y="-1" x="-1"/>
 </g>
 <g>
  <title>Layer 1</title>
  <g id="Layer_x0020_1">
   <metadata transform="translate(1,1) " id="CorelCorpID_0Corel-Layer"/>
   <g id="_2613265489328">
    <path id="svg_1" d="m17922,3305c0,104 120,197 182,274l747,913c27,30 51,59 76,92c61,79 194,222 234,296l-3415,0l0,-3367l2224,0c353,0 654,212 806,517c141,282 95,628 -89,873c-14,18 -15,16 -28,33c-15,18 -12,18 -25,34c-68,86 -238,191 -344,234c-48,19 -132,42 -178,50c-103,16 -117,2 -190,51zm-2321,-1816l0,3415c0,86 35,120 121,120l3547,0c230,0 38,-193 -40,-285l-704,-859c-15,-19 -25,-25 -40,-44l-358,-447c148,-35 265,-68 396,-156l130,-100c189,-167 339,-430 339,-682c0,-129 4,-207 -37,-335c-51,-161 -174,-375 -306,-476c-72,-54 -145,-118 -232,-153c-108,-43 -152,-72 -290,-94c-78,-13 -150,-24 -241,-24l-2164,0c-86,0 -121,34 -121,120z" class="fil0"/>
    <path id="svg_2" d="m6487,1525c331,0 699,102 964,299c86,64 153,115 229,191c130,130 271,320 341,489c213,516 203,1063 -86,1539l-270,344c-128,107 -258,225 -412,297c-50,23 -93,40 -144,60c-428,172 -936,148 -1344,-56c-103,-52 -285,-164 -370,-244c-37,-35 -65,-66 -102,-102l-182,-227c-18,-26 -20,-33 -36,-60c-124,-203 -218,-446 -235,-690c-13,-190 -17,-366 38,-563c84,-306 221,-568 445,-793l162,-139c23,-17 40,-30 62,-46c144,-108 390,-212 564,-253c104,-25 243,-46 376,-46zm-1792,1659c0,179 39,433 98,588c19,52 40,109 66,162c64,126 68,154 161,285c184,260 312,360 589,541c195,128 603,240 890,240c232,0 533,-64 729,-160c59,-29 92,-37 146,-71c49,-29 96,-53 142,-86c760,-556 1004,-1465 586,-2321c-27,-57 -172,-278 -217,-323c-47,-48 -98,-118 -151,-162c-27,-22 -33,-21 -60,-48c-40,-40 -72,-65 -119,-97c-25,-17 -39,-30 -63,-45c-230,-154 -602,-294 -897,-294c-244,0 -168,-5 -397,23c-205,26 -328,94 -491,159c-88,35 -322,190 -390,260c-51,52 -84,64 -119,109c-22,28 -22,32 -49,59c-21,21 -34,31 -52,56l-173,260c-141,243 -229,574 -229,865z" class="fil0"/>
    <path id="svg_3" d="m12042,3269c0,-296 35,-540 160,-790c268,-532 725,-859 1310,-939c113,-15 269,-13 381,-2c145,16 359,70 482,131c192,96 326,163 490,328c156,158 239,266 344,474c184,365 205,771 109,1163c-17,67 -34,98 -52,153c-40,122 -137,291 -211,390c-136,183 -218,261 -407,399c-169,124 -367,195 -569,248c-521,137 -1151,-49 -1529,-428c-33,-34 -73,-68 -101,-103c-225,-283 -407,-629 -407,-1024zm-132,-169c0,345 20,570 180,890c67,133 117,207 204,325c148,198 441,431 660,519c415,166 748,224 1197,111c670,-168 1146,-684 1316,-1354l49,-393c-1,-30 -11,-46 -11,-97c-1,-187 -48,-373 -115,-547c-51,-132 -112,-255 -192,-373l-93,-123c-118,-139 -202,-214 -349,-325c-106,-80 -171,-112 -281,-164c-408,-191 -918,-241 -1349,-78c-48,18 -104,37 -154,62l-145,72c-128,76 -328,218 -427,330c-121,136 -227,283 -310,448c-92,183 -180,478 -180,697z" class="fil0"/>
    <path id="svg_4" d="m1088,3184c0,230 58,541 160,742c73,144 47,122 159,286c486,704 1408,987 2206,632c48,-21 77,-30 122,-58c41,-25 77,-39 116,-65c196,-127 287,-221 432,-385c22,-25 23,-23 45,-52c52,-71 99,-140 143,-218c66,-119 74,-169 116,-256c-35,-17 -91,-39 -132,-48c-11,127 -199,396 -287,507c-122,154 -375,347 -547,427c-560,260 -1224,208 -1717,-163c-190,-142 -312,-274 -436,-478c-16,-25 -31,-44 -43,-65c-83,-142 -180,-450 -193,-625c-2,-40 2,-63 -5,-103c-31,-185 55,-575 149,-763c46,-92 89,-176 150,-259l88,-117c488,-546 1147,-740 1859,-494c235,81 436,222 606,392c58,59 106,114 156,181c67,89 144,215 185,319c65,164 35,105 167,74c-13,-151 -262,-521 -394,-652c-31,-31 -57,-61 -92,-88c-43,-33 -55,-51 -98,-83c-290,-214 -644,-379 -1027,-379c-239,0 -162,-4 -386,23c-205,26 -327,94 -491,159l-269,163c-45,34 -81,57 -120,97c-24,24 -31,32 -57,51c-105,78 -266,312 -336,433c-26,44 -50,98 -73,144c-42,84 -83,222 -108,324c-26,107 -48,267 -48,397z" class="fil0"/>
    <polygon id="svg_5" points="8363,4988 11874,4988 11874,4856 8495,4856 8495,1453 8363,1453 " class="fil0"/>
    <path id="svg_6" d="m6523,3738c-222,0 -409,-99 -509,-297c-80,-157 -77,-343 -1,-501c76,-157 282,-297 486,-297c207,0 417,136 495,311c26,60 50,139 57,220c5,58 -24,175 -42,220c-51,129 -145,227 -266,288c-68,34 -123,56 -220,56zm-674,-541c0,129 49,273 117,364l65,79c177,186 480,270 725,150c145,-71 256,-164 328,-309c127,-253 68,-550 -137,-757c-186,-186 -482,-236 -717,-121c-233,114 -381,324 -381,594z" class="fil0"/>
    <polygon id="svg_7" points="16479,3786 16587,3786 16587,3257 17634,3257 17634,3786 17742,3786 17742,2631 17634,2631 17634,3160 16587,3160 16587,2631 16479,2631 " class="fil0"/>
    <path id="svg_8" d="m13076,3184c0,510 600,830 1026,509c79,-60 204,-185 213,-292c-51,-12 -33,-23 -96,-24c-38,159 -263,337 -457,337c-247,0 -337,-53 -479,-220c-29,-34 -31,-40 -51,-81c-66,-135 -64,-317 4,-453c33,-67 85,-125 143,-171c14,-11 18,-17 32,-28c192,-144 495,-117 684,54c25,22 26,33 49,60c35,41 61,82 75,141c58,-5 38,-19 96,-24c-7,-81 -114,-224 -161,-260c-238,-181 -455,-230 -749,-85c-55,27 -44,23 -85,59c-73,66 -140,115 -191,243c-22,56 -53,165 -53,235z" class="fil0"/>
    <path id="svg_9" d="m9457,2643c0,450 -50,640 175,944c266,359 832,293 1040,-114c128,-252 95,-517 95,-830c0,-46 -30,-36 -108,-36l0,529c0,294 -217,578 -565,578c-292,0 -529,-285 -529,-578l0,-529c-77,0 -108,-10 -108,36z" class="fil0"/>
    <polygon id="svg_10" points="2290,2667 2819,2667 2819,3774 2927,3774 2927,2667 3457,2667 3457,2559 2290,2559 " class="fil0"/>
   </g>
  </g>
 </g>
</svg>