<!-- Copyright © 2015 MODULUS Sp. z o. o. / FUTURAMO™ --><svg xmlns="http://www.w3.org/2000/svg" x="0px" y="0px" width="64px" height="64px" viewBox="0 0 32 32"><path  fill="#ff0000" d="M4.686,4.686c-6.248,6.248-6.248,16.379,0,22.627s16.379,6.248,22.627,0c6.249-6.249,6.248-16.379,0-22.627 S10.936-1.563,4.686,4.686z M24.485,24.485c-4.679,4.679-12.291,4.679-16.971,0s-4.679-12.291,0-16.971s12.291-4.679,16.971,0 S29.165,19.806,24.485,24.485z M13.172,10.343c-0.781-0.781-2.047-0.781-2.828,0s-0.781,2.047,0,2.828L13.172,16l-2.828,2.828 c-0.781,0.781-0.781,2.047,0,2.828c0.781,0.781,2.047,0.781,2.828,0L16,18.828l2.828,2.828c0.781,0.781,2.047,0.781,2.828,0 c0.781-0.781,0.781-2.047,0-2.828L18.829,16l2.828-2.828c0.781-0.781,0.781-2.047,0-2.828c-0.781-0.781-2.047-0.781-2.828,0 L16,13.171L13.172,10.343z"></path></svg>