<!-- Copyright © 2015 MODULUS Sp. z o. o. / FUTURAMO™ --><svg xmlns="http://www.w3.org/2000/svg" x="0px" y="0px" width="64px" height="64px" viewBox="0 0 32 32"><path  fill="#FF2800" d="M24,4H8c-4.418,0-8,3.582-8,8v10c0,4.418,3.582,8,8,8h16c4.418,0,8-3.582,8-8V12C32,7.582,28.418,4,24,4z  M8,10h16c0.418,0,0.785,0.16,1.109,0.381L16,17.465l-9.109-7.084C7.211,10.16,7.578,10,8,10z M6,12.223L12.141,17L6,21.777V12.223z  M24,24H8c-0.42,0-0.787-0.16-1.109-0.381l6.883-5.354l0.998,0.777c0.723,0.563,1.735,0.563,2.458,0l0.998-0.777l6.883,5.354 C24.787,23.84,24.42,24,24,24z M26,21.777L19.859,17L26,12.223V21.777z"></path></svg>