<!-- Copyright © 2015 MODULUS Sp. z o. o. / FUTURAMO™ --><svg xmlns="http://www.w3.org/2000/svg" x="0px" y="0px" width="64px" height="64px" viewBox="0 0 32 32"><path  fill="#FF2800" d="M16,0C7.168,0-0.155,7.454-0.002,16.279c0.152,8.793,7.659,15.949,16.433,15.716V19.678h-2.15 c-0.828,0-1.5-0.672-1.5-1.5v-2.273c0-0.828,0.672-1.5,1.5-1.5h2.15c0-1.946-0.193-3.999,0.721-5.791 c1.499-2.937,4.737-3.124,7.671-2.84c0.768,0.074,1.356,0.72,1.356,1.491v1.855c0,0.41-0.168,0.802-0.465,1.085 s-0.697,0.433-1.106,0.414c-0.763-0.036-1.542-0.027-2.14,0.216c-1.017,0.415-0.621,2.704-0.621,3.568h2.551 c0.431,0,0.842,0.186,1.126,0.51s0.416,0.755,0.361,1.182l-0.293,2.273c-0.097,0.748-0.733,1.308-1.488,1.308h-2.257l0,11.18 c7.274-2.856,11.492-10.793,9.761-18.416C29.975,5.247,23.375,0,16,0z"></path></svg>