<!-- Copyright © 2015 MODULUS Sp. z o. o. / FUTURAMO™ --><svg xmlns="http://www.w3.org/2000/svg" x="0px" y="0px" width="64px" height="64px" viewBox="0 0 32 32"><path  fill="#FF2800" d="M26,10.001V4c0-1.104-0.896-2-2-2s-2,0.896-2,2v2.001l-3.879-3.878C17.535,1.537,16.768,1.244,16,1.244 s-1.535,0.293-2.121,0.879L1.415,14.587c-0.781,0.781-0.781,2.047,0,2.828L4,20v4c0,4.418,3.582,8,8,8h8c4.418,0,8-3.582,8-8v-4 l2.584-2.584c0.781-0.781,0.781-2.047,0-2.828L26,10.001z M24,24c0,2.206-1.794,4-4,4v-8c0-1.104-0.896-2-2-2h-4 c-1.104,0-2,0.896-2,2v8c-2.206,0-4-1.794-4-4v-7.514l8-7.999l8,7.999V24z"></path></svg>