<!-- Copyright © 2015 MODULUS Sp. z o. o. / FUTURAMO™ --><svg xmlns="http://www.w3.org/2000/svg" x="0px" y="0px" width="64px" height="64px" viewBox="0 0 32 32"><path  fill="#FF2800" d="M21.817,20.73c-1.385-0.177-2.608,1.935-3.491,2.166c-0.958,0.25-3.998-1.87-5.664-3.499 c-0.01-0.01-0.017-0.021-0.026-0.03l0,0c0,0,0,0-0.001-0.001c0,0,0,0-0.001-0.001c0,0,0,0-0.001-0.001c0,0,0,0-0.001-0.001l0,0 c-0.01-0.009-0.02-0.017-0.03-0.026c-1.629-1.666-3.749-4.706-3.499-5.664c0.231-0.883,2.342-2.107,2.165-3.491 c-0.203-1.588-3.285-5.878-4.773-6.128C5.566,3.898,3.558,5.178,2.357,8.43c-0.707,1.915,1.769,8.617,5.32,12.982 c0.486,0.595,1.36,1.532,1.369,1.541c0,0,0,0,0.001,0.001c0,0,0.947,0.884,1.542,1.369c4.366,3.55,11.067,6.027,12.982,5.32 c3.252-1.201,4.532-3.209,4.375-4.14C27.695,24.016,23.405,20.933,21.817,20.73z"></path></svg>