<!-- Copyright © 2015 MODULUS Sp. z o. o. / FUTURAMO™ --><svg xmlns="http://www.w3.org/2000/svg" x="0px" y="0px" width="64px" height="64px" viewBox="0 0 32 32"><path  fill="#FF2800" d="M6,10c1.616,0,3.077,0.646,4.156,1.686l9.917-4.959C20.044,6.486,20,6.249,20,6c0-3.314,2.686-6,6-6 s6,2.686,6,6s-2.686,6-6,6c-1.616,0-3.077-0.646-4.156-1.686l-9.917,4.958C11.956,15.514,12,15.751,12,16s-0.044,0.486-0.073,0.727 l9.917,4.958C22.923,20.646,24.384,20,26,20c3.314,0,6,2.686,6,6s-2.686,6-6,6s-6-2.686-6-6c0-0.249,0.044-0.486,0.073-0.727 l-9.917-4.959C9.077,21.354,7.616,22,6,22c-3.314,0-6-2.686-6-6S2.686,10,6,10z"></path></svg>