<!-- Copyright © 2015 MODULUS Sp. z o. o. / FUTURAMO™ --><svg xmlns="http://www.w3.org/2000/svg" x="0px" y="0px" width="64px" height="64px" viewBox="0 0 32 32"><path  fill="#35393E" d="M13.105,8.371c0.094,0.224,0.043,0.482-0.129,0.653l-5.953,5.951c-0.172,0.172-0.43,0.224-0.652,0.13 C6.146,15.013,6,14.794,6,14.551V10c0-1.104,0.895-2,2-2h4.551C12.793,8,13.012,8.146,13.105,8.371z M22,8h-4.551 c-0.242,0-0.461,0.146-0.555,0.371c-0.094,0.224-0.043,0.482,0.129,0.653l5.953,5.951c0.172,0.172,0.43,0.224,0.652,0.13 C23.854,15.013,24,14.794,24,14.551V10C24,8.896,23.105,8,22,8z M23.629,18.895c-0.223-0.094-0.481-0.042-0.652,0.13l-5.953,5.951 c-0.172,0.172-0.223,0.43-0.129,0.653C16.988,25.854,17.207,26,17.449,26H22c1.105,0,2-0.896,2-2v-4.551 C24,19.206,23.854,18.987,23.629,18.895z M7.023,19.024c-0.172-0.172-0.43-0.224-0.652-0.13C6.146,18.987,6,19.206,6,19.449V24 c0,1.104,0.895,2,2,2h4.551c0.242,0,0.461-0.146,0.555-0.371c0.094-0.224,0.043-0.482-0.129-0.653L7.023,19.024z M30,9.999v14.002 C30,28.419,26.418,32,22,32H8c-4.418,0-8-3.581-8-7.999V9.999C0,5.581,3.582,2,8,2h14C26.418,2,30,5.581,30,9.999z M26,9.999 C26,7.794,24.206,6,22,6H8C5.794,6,4,7.794,4,9.999v14.002C4,26.206,5.794,28,8,28h14c2.206,0,4-1.794,4-3.999V9.999z"></path></svg>